<svg xmlns="http://www.w3.org/2000/svg" viewBox="0 0 200 200" fill="currentColor">
  <path d="M100 20 C 60 20, 30 40, 30 80 L 30 120 C 30 140, 40 160, 60 170 C 70 175, 85 180, 100 180 C 115 180, 130 175, 140 170 C 160 160, 170 140, 170 120 L 170 80 C 170 40, 140 20, 100 20 Z M 70 80 C 70 70, 75 65, 82 65 C 89 65, 94 70, 94 80 C 94 90, 89 95, 82 95 C 75 95, 70 90, 70 80 Z M 106 80 C 106 70, 111 65, 118 65 C 125 65, 130 70, 130 80 C 130 90, 125 95, 118 95 C 111 95, 106 90, 106 80 Z M 75 115 Q 85 125, 100 125 Q 115 125, 125 115" stroke="currentColor" stroke-width="3" fill="none"/>
  <circle cx="82" cy="80" r="5"/>
  <circle cx="118" cy="80" r="5"/>
</svg>
